<svg width="748" height="582" viewBox="0 0 748 582" fill="none" xmlns="http://www.w3.org/2000/svg">
<path d="M266.389 145.023C319.964 72.8226 428.036 72.8225 481.611 145.023L539.212 222.65C604.823 311.072 541.707 436.5 431.601 436.5H316.399C206.293 436.5 143.177 311.073 208.788 222.65L266.389 145.023Z" fill="#FEE8D3"/>
<path d="M504 362.004C504 373.067 500.902 383.54 495.445 392.39C492.347 397.7 488.365 402.42 483.792 406.255C473.467 415.547 459.897 421.005 444.999 421.005C427.004 421.005 410.926 412.892 400.306 400.207C400.011 399.765 399.569 399.47 399.274 399.027C397.504 396.962 395.881 394.75 394.554 392.39C389.096 383.54 385.999 373.067 385.999 362.004C385.999 343.419 394.554 326.752 408.124 315.984C418.301 307.871 431.134 303.004 444.999 303.004C459.749 303.004 473.024 308.314 483.349 317.312C485.119 318.639 486.742 320.262 488.217 321.884C497.952 332.504 504 346.517 504 362.004Z" stroke="black" stroke-width="16" stroke-miterlimit="10" stroke-linecap="round" stroke-linejoin="round"/>
<path d="M466.977 361.707H423.021" stroke="black" stroke-width="16" stroke-miterlimit="10" stroke-linecap="round" stroke-linejoin="round"/>
<path d="M445 340.168V384.271" stroke="black" stroke-width="16" stroke-miterlimit="10" stroke-linecap="round" stroke-linejoin="round"/>
<path d="M211.506 206.238L341.749 281.611L471.109 206.68" stroke="black" stroke-width="16" stroke-linecap="round" stroke-linejoin="round"/>
<path d="M341.749 415.249V281.465" stroke="black" stroke-width="16" stroke-linecap="round" stroke-linejoin="round"/>
<path d="M483.498 231.759V315.244C483.498 315.982 483.498 316.572 483.35 317.309C473.025 308.312 459.75 303.002 445 303.002C431.135 303.002 418.302 307.869 408.124 315.982C394.554 326.749 385.999 343.417 385.999 362.002C385.999 373.065 389.097 383.537 394.554 392.388C395.882 394.748 397.504 396.96 399.274 399.025L372.281 413.923C355.466 423.363 328.031 423.363 311.216 413.923L232.45 370.262C214.603 360.38 200 335.6 200 315.244V231.759C200 211.403 214.603 186.623 232.45 176.741L311.216 133.08C328.031 123.64 355.466 123.64 372.281 133.08L451.047 176.741C468.895 186.623 483.498 211.403 483.498 231.759Z" stroke="black" stroke-width="16" stroke-linecap="round" stroke-linejoin="round"/>
</svg>
