<svg width="748" height="582" viewBox="0 0 748 582" fill="none" xmlns="http://www.w3.org/2000/svg">
<path d="M266.389 145.023C319.964 72.8226 428.036 72.8225 481.611 145.023L539.212 222.65C604.823 311.072 541.707 436.5 431.601 436.5H316.399C206.293 436.5 143.177 311.073 208.788 222.65L266.389 145.023Z" fill="#D7F5F5"/>
<path d="M383.393 411H218.771V161.162C218.781 159.705 219.181 158.277 219.929 157.026C220.676 155.775 221.745 154.747 223.023 154.048L371.29 73.0037C372.537 72.3214 373.94 71.9759 375.362 72.0013C376.783 72.0267 378.173 72.4222 379.395 73.1487C380.617 73.8752 381.628 74.9077 382.329 76.1442C383.031 77.3808 383.397 78.7788 383.393 80.2003V411Z" stroke="black" stroke-width="16" stroke-linecap="round"/>
<path d="M498.294 410.999H384.211V156.336L494.45 219.388C495.629 220.125 496.6 221.15 497.273 222.366C497.945 223.582 498.297 224.95 498.294 226.34V410.999Z" stroke="black" stroke-width="16" stroke-linecap="round"/>
<path d="M328.438 183.082H270.865" stroke="black" stroke-width="16" stroke-linecap="round"/>
<path d="M455.687 244.824H426.9" stroke="black" stroke-width="16" stroke-linecap="round"/>
<path d="M455.687 281.547H426.9" stroke="black" stroke-width="16" stroke-linecap="round"/>
<path d="M455.687 320.879H426.9" stroke="black" stroke-width="16" stroke-linecap="round"/>
<path d="M455.687 357.52H426.9" stroke="black" stroke-width="16" stroke-linecap="round"/>
<path d="M328.438 228.715H270.865" stroke="black" stroke-width="16" stroke-linecap="round"/>
<path d="M328.438 273.695H270.865" stroke="black" stroke-width="16" stroke-linecap="round"/>
<path d="M328.438 318.672H270.865" stroke="black" stroke-width="16" stroke-linecap="round"/>
<path d="M328.438 363.652H270.865" stroke="black" stroke-width="16" stroke-linecap="round"/>
<path d="M176 411.004H544.664" stroke="black" stroke-width="16" stroke-linecap="round"/>
</svg>
