<svg width="748" height="582" viewBox="0 0 748 582" fill="none" xmlns="http://www.w3.org/2000/svg">
<path d="M266.389 145.023C319.964 72.8226 428.036 72.8225 481.611 145.023L539.212 222.65C604.823 311.072 541.707 436.5 431.601 436.5H316.399C206.293 436.5 143.177 311.073 208.788 222.65L266.389 145.023Z" fill="#D2DDFA"/>
<path d="M413.215 225.518C397.424 225.518 382.545 229.488 369.515 236.474H363.553C363.556 236.36 363.57 236.247 363.57 236.132V214.22C363.57 214.104 363.556 213.991 363.553 213.877H363.912C369.765 213.877 374.526 209.116 374.526 203.264V181.351C374.526 175.498 369.765 170.737 363.912 170.737H363.553C363.556 170.623 363.57 170.51 363.57 170.395V148.482C363.57 148.366 363.556 148.254 363.553 148.14H374.868C380.721 148.14 385.482 143.379 385.482 137.526V115.614C385.482 109.761 380.721 105 374.868 105H210.526C204.673 105 199.912 109.761 199.912 115.614V137.526C199.912 137.642 199.925 137.755 199.929 137.869H188.614C182.761 137.869 178 142.63 178 148.482V170.395C178 176.248 182.761 181.009 188.614 181.009H188.973C188.97 181.124 188.956 181.236 188.956 181.351V203.264C188.956 203.379 188.969 203.492 188.973 203.606H188.614C182.761 203.606 178 208.367 178 214.22V236.132C178 241.985 182.761 246.746 188.614 246.746H199.929C199.926 246.86 199.912 246.973 199.912 247.088V269.001C199.912 269.117 199.925 269.229 199.929 269.343H188.614C182.761 269.343 178 274.104 178 279.957V301.869C178 307.722 182.761 312.483 188.614 312.483H188.973C188.97 312.597 188.956 312.71 188.956 312.825V334.738C188.956 334.854 188.969 334.966 188.973 335.08H188.614C182.761 335.08 178 339.841 178 345.693V367.606C178 373.458 182.761 378.22 188.614 378.22H199.929C199.926 378.334 199.912 378.446 199.912 378.562V400.474C199.912 406.327 204.673 411.088 210.526 411.088H374.868C378.575 411.088 381.839 409.174 383.738 406.287C393.003 409.399 402.914 411.088 413.214 411.088C464.376 411.088 505.999 369.465 505.999 318.303C505.999 267.142 464.377 225.518 413.215 225.518ZM363.913 181.008C364.102 181.008 364.255 181.163 364.255 181.35V203.263C364.255 203.451 364.102 203.605 363.913 203.605H352.957H199.57C199.381 203.605 199.228 203.451 199.228 203.263V181.35C199.228 181.162 199.381 181.008 199.57 181.008H352.956H363.913ZM210.184 115.614C210.184 115.426 210.337 115.272 210.526 115.272H374.868C375.057 115.272 375.21 115.426 375.21 115.614V137.526C375.21 137.715 375.057 137.869 374.868 137.869H352.955H210.526C210.337 137.869 210.184 137.715 210.184 137.526V115.614ZM188.614 170.737C188.425 170.737 188.272 170.583 188.272 170.395V148.482C188.272 148.294 188.425 148.14 188.614 148.14H210.526H352.957C353.146 148.14 353.299 148.295 353.299 148.482V170.395C353.299 170.583 353.146 170.737 352.957 170.737H199.57H188.614ZM188.614 236.474C188.425 236.474 188.272 236.32 188.272 236.132V214.22C188.272 214.031 188.425 213.877 188.614 213.877H199.57H352.956C353.145 213.877 353.298 214.031 353.298 214.22V236.132C353.298 236.32 353.145 236.474 352.956 236.474H210.526H188.614ZM354.214 246.745C346.465 253.146 339.774 260.781 334.435 269.342H210.526C210.337 269.342 210.184 269.188 210.184 269V247.087C210.184 246.899 210.337 246.745 210.526 246.745H352.956H354.214ZM188.614 302.211C188.425 302.211 188.272 302.057 188.272 301.869V279.957C188.272 279.768 188.425 279.615 188.614 279.615H328.892C325.622 286.713 323.221 294.291 321.831 302.211H199.57H188.614ZM321.954 335.08H199.57C199.381 335.08 199.228 334.925 199.228 334.738V312.825C199.228 312.637 199.381 312.483 199.57 312.483H320.618C320.498 314.409 320.43 316.349 320.43 318.304C320.43 324.03 320.955 329.636 321.954 335.08ZM188.614 367.948C188.425 367.948 188.272 367.793 188.272 367.606V345.693C188.272 345.505 188.425 345.351 188.614 345.351H324.456C326.913 353.4 330.437 360.987 334.863 367.948H210.526H188.614ZM210.526 400.816C210.337 400.816 210.184 400.663 210.184 400.474V378.562C210.184 378.373 210.337 378.22 210.526 378.22H342C342.14 378.22 342.277 378.209 342.414 378.199C350.274 387.475 359.916 395.195 370.811 400.817L210.526 400.816ZM413.215 400.816C367.717 400.816 330.701 363.801 330.701 318.303C330.701 272.804 367.717 235.789 413.215 235.789C458.714 235.789 495.729 272.804 495.729 318.303C495.729 363.801 458.714 400.816 413.215 400.816Z" fill="black" stroke="black" stroke-width="3"/>
<path d="M413.215 247.43C374.136 247.43 342.343 279.223 342.343 318.302C342.343 357.381 374.136 389.174 413.215 389.174C452.294 389.174 484.087 357.381 484.087 318.302C484.087 279.223 452.295 247.43 413.215 247.43ZM413.215 378.904C379.799 378.904 352.614 351.718 352.614 318.303C352.614 284.887 379.799 257.701 413.215 257.701C446.631 257.701 473.816 284.887 473.816 318.303C473.816 351.718 446.631 378.904 413.215 378.904Z" fill="black" stroke="black" stroke-width="3"/>
<path d="M418.351 314.551V291.034C425.407 292.35 429.992 296.249 429.992 299.814C429.992 302.65 432.291 304.95 435.128 304.95C437.964 304.95 440.263 302.651 440.263 299.814C440.263 290.142 430.98 282.327 418.351 280.64V279.956C418.351 277.12 416.052 274.82 413.215 274.82C410.379 274.82 408.079 277.12 408.079 279.956V280.64C395.45 282.327 386.167 290.142 386.167 299.814C386.167 313.494 398.255 318.812 408.079 322.056V345.572C401.023 344.256 396.438 340.358 396.438 336.792C396.438 333.956 394.139 331.656 391.302 331.656C388.466 331.656 386.167 333.955 386.167 336.792C386.167 346.464 395.45 354.28 408.079 355.966V356.65C408.079 359.486 410.378 361.786 413.215 361.786C416.051 361.786 418.351 359.487 418.351 356.65V355.966C430.98 354.28 440.263 346.464 440.263 336.792C440.263 323.111 428.174 317.793 418.351 314.551ZM408.079 311.123C399.316 307.779 396.438 304.755 396.438 299.814C396.438 296.248 401.023 292.35 408.079 291.034V311.123ZM418.351 345.572V325.483C427.114 328.827 429.992 331.851 429.992 336.792C429.992 340.358 425.406 344.256 418.351 345.572Z" fill="black" stroke="black" stroke-width="3"/>
</svg>
