<svg width="715" height="556" viewBox="0 0 715 556" fill="none" xmlns="http://www.w3.org/2000/svg">
<path d="M249.912 144.909C303.488 72.7483 411.512 72.7482 465.088 144.909L508.308 203.12C573.954 291.538 510.843 417 400.72 417H314.28C204.157 417 141.046 291.538 206.692 203.12L249.912 144.909Z" fill="#D9D9D9"/>
<path d="M315.72 92H253.28C239.871 92 229 102.871 229 116.28V178.72C229 192.129 239.871 203 253.28 203H315.72C329.129 203 340 192.129 340 178.72V116.28C340 102.871 329.129 92 315.72 92Z" stroke="black" stroke-width="16" stroke-linecap="round" stroke-linejoin="round"/>
<path d="M460.72 92H398.28C384.871 92 374 102.871 374 116.28V178.72C374 192.129 384.871 203 398.28 203H460.72C474.129 203 485 192.129 485 178.72V116.28C485 102.871 474.129 92 460.72 92Z" stroke="black" stroke-width="16" stroke-linecap="round" stroke-linejoin="round"/>
<path d="M315.72 231H253.28C239.871 231 229 241.871 229 255.28V317.72C229 331.129 239.871 342 253.28 342H315.72C329.129 342 340 331.129 340 317.72V255.28C340 241.871 329.129 231 315.72 231Z" stroke="black" stroke-width="16" stroke-linecap="round" stroke-linejoin="round"/>
<path d="M460.72 231H398.28C384.871 231 374 241.871 374 255.28V317.72C374 331.129 384.871 342 398.28 342H460.72C474.129 342 485 331.129 485 317.72V255.28C485 241.871 474.129 231 460.72 231Z" stroke="black" stroke-width="16" stroke-linecap="round" stroke-linejoin="round"/>
</svg>
