<svg width="748" height="582" viewBox="0 0 748 582" fill="none" xmlns="http://www.w3.org/2000/svg">
<path d="M266.389 145.023C319.964 72.8226 428.036 72.8225 481.611 145.023L539.212 222.65C604.823 311.072 541.707 436.5 431.601 436.5H316.399C206.293 436.5 143.177 311.073 208.788 222.65L266.389 145.023Z" fill="#ECFED8"/>
<path d="M326.126 150.353L329.901 139.394L322.679 136.91L318.849 148.057C309.219 145.41 300.621 145.66 293.042 148.848C284.396 152.515 278.313 159.439 274.815 169.571C271.956 177.84 272.43 185.438 276.192 192.358C279.691 198.696 286.437 205.597 296.504 213.031L285.074 246.252C281.143 244.211 278.459 241.568 277.044 238.286C275.252 234.05 275.685 228.574 278.34 221.898L256.761 214.488L255.731 217.248C252.026 228.005 252.257 237.276 256.409 245.086C260.555 252.876 268.135 259.05 279.112 263.572L273.822 278.946L281.043 281.429L286.371 265.979C297.029 269.129 306.582 268.994 314.997 265.566C324.194 261.842 330.592 254.77 334.184 244.306C337.259 235.364 337.103 227.408 333.686 220.436C330.306 213.436 323.028 206.012 311.838 198.176L310.113 196.887L320.428 166.835C324.693 168.703 327.495 171.025 328.836 173.728C330.5 177.137 330.326 181.758 328.314 187.616L348.648 194.612C352.24 184.137 351.788 174.978 347.33 167.094C343.334 159.999 336.249 154.396 326.126 150.353ZM311.529 226.93C313.494 230.549 313.758 234.4 312.352 238.48C310.673 243.352 307.778 246.619 303.691 248.264C300.316 249.67 296.512 249.853 292.261 248.861L302.944 217.798C307.228 221.015 310.086 224.037 311.529 226.93ZM303.753 191.936C301.027 189.566 298.995 187.325 297.589 185.236C295.106 181.48 294.519 177.77 295.798 174.029C297.322 169.582 299.996 166.604 303.809 165.162C306.555 164.08 309.654 163.878 313.16 164.551L303.753 191.936ZM414.458 349.44C411.957 344.034 407.519 340.386 401.124 338.514C395.67 336.915 390.893 337.225 386.794 339.502C382.675 341.711 378.448 346.328 374.048 353.25L373.315 354.341L354.984 348.972C355.984 346.366 357.278 344.589 358.872 343.705C360.875 342.613 363.657 342.596 367.239 343.62L370.851 331.207C364.475 329.356 358.98 329.854 354.367 332.768C350.195 335.383 347.019 339.801 344.884 346.007L338.231 344.052L336.92 348.48L343.737 350.464C342.407 356.294 342.801 361.476 344.941 365.922C347.394 371.019 351.721 374.498 357.932 376.285C362.968 377.772 367.532 377.282 371.576 374.818C375.281 372.553 379.248 368.292 383.418 362.05L403.701 367.974C402.571 370.383 401.078 372.055 399.13 372.995C396.611 374.18 393.31 374.067 389.258 372.675L385.411 385.858L387.104 386.421C393.687 388.321 399.253 387.926 403.822 385.217C408.373 382.509 411.871 377.799 414.278 371.038L423.661 373.784L424.959 369.366L415.527 366.619C417.091 360.122 416.753 354.414 414.458 349.44ZM366.654 362.172C364.467 363.77 362.244 364.221 359.973 363.572C357.265 362.764 355.389 361.259 354.406 358.984C353.697 357.367 353.484 355.523 353.791 353.38L370.537 358.27C369.169 360.019 367.866 361.259 366.654 362.172ZM405.009 363.593L386.071 358.062C387.887 355.392 389.608 353.588 391.299 352.628C393.415 351.349 395.718 351.086 398.228 351.819C401.219 352.683 403.24 354.339 404.359 356.764C405.282 358.711 405.506 361.006 405.009 363.593ZM536.301 243.799C526.569 214.566 499.348 194.932 468.563 194.932C460.927 194.932 453.329 196.163 445.994 198.599C433.029 202.924 422.177 210.673 414.006 220.457C419.017 169.831 388.994 120.366 338.85 103.131C327.016 99.0585 314.717 97 302.318 97C254.387 97 211.712 127.475 196.113 172.834C175.971 231.405 207.245 295.438 265.816 315.579C277.648 319.66 289.934 321.71 302.328 321.71C308.707 321.71 314.997 321.128 321.147 320.092C317.461 325.772 314.42 331.939 312.465 338.654C307.119 356.951 309.23 376.246 318.397 392.983C327.56 409.739 342.698 421.869 361.011 427.219C367.561 429.117 374.288 430.097 381.049 430.097C412.539 430.097 440.711 408.969 449.558 378.682C453.835 364.042 453.282 348.791 448.213 334.742C454.701 336.651 461.527 337.798 468.542 337.798C476.196 337.798 483.774 336.557 491.11 334.13C509.219 328.094 523.869 315.382 532.407 298.314C540.947 281.261 542.339 261.889 536.301 243.799ZM400.804 288.904C400.955 289.383 401.219 289.797 401.369 290.249C401.256 290.212 401.133 290.153 401.02 290.107C395.153 288.397 389.116 287.551 383.041 287.39C388.364 281.898 393.159 275.919 397.287 269.369C397.551 275.842 398.661 282.416 400.804 288.904ZM272.074 297.395C223.546 280.696 197.637 227.63 214.313 179.092C227.242 141.524 262.61 116.266 302.318 116.266C312.582 116.266 322.767 117.978 332.596 121.339C356.104 129.43 375.069 146.182 385.968 168.501C396.873 190.842 398.435 216.098 390.349 239.61C377.411 277.19 342.057 302.445 302.328 302.445C292.061 302.444 281.886 300.724 272.074 297.395ZM431.055 373.259C424.604 395.355 404.03 410.796 381.041 410.796C376.108 410.796 371.21 410.099 366.406 408.689C353.011 404.778 341.977 395.901 335.286 383.696C328.605 371.464 327.063 357.387 330.951 344.017C337.412 321.901 357.99 306.462 380.976 306.462C385.903 306.462 390.82 307.176 395.615 308.588C409.005 312.48 420.043 321.355 426.739 333.581C433.424 345.792 434.976 359.896 431.055 373.259ZM515.201 289.693C508.966 302.143 498.238 311.443 485.036 315.843C479.676 317.63 474.129 318.524 468.544 318.524C446.071 318.524 426.193 304.184 419.084 282.831C410 255.544 424.801 225.956 452.068 216.872C457.448 215.072 462.994 214.187 468.561 214.187C491.054 214.187 510.902 228.527 518.02 249.882C522.441 263.094 521.426 277.226 515.201 289.693ZM487.603 260.225C483.429 258.076 477.25 257.208 469.023 257.545L467.726 257.564L461.689 239.435C464.416 238.768 466.598 238.838 468.234 239.647C470.264 240.657 471.881 242.936 473.067 246.473L485.329 242.392C483.213 236.074 479.667 231.837 474.646 229.699C470.132 227.795 464.697 227.687 458.388 229.451L456.177 222.836L451.815 224.289L454.052 231.021C448.485 233.245 444.462 236.517 442.017 240.833C439.216 245.741 438.82 251.271 440.87 257.402C442.544 262.408 445.525 265.86 449.858 267.782C453.845 269.554 459.591 270.383 467.123 270.251L473.781 290.315C471.166 290.767 468.929 290.484 467.049 289.421C464.642 288.029 462.855 285.266 461.689 281.138L448.648 285.454L449.165 287.175C451.327 293.663 454.826 298.007 459.659 300.217C464.492 302.426 470.351 302.605 477.26 300.772L480.354 310.043L484.697 308.605L481.595 299.269C487.839 296.879 492.37 293.325 495.134 288.632C498.162 283.489 498.633 277.762 496.536 271.453C494.759 266.037 491.789 262.303 487.603 260.225ZM457.477 256.554C454.919 255.669 453.282 254.091 452.531 251.848C451.629 249.168 451.834 246.78 453.113 244.683C454.063 243.169 455.445 241.937 457.364 240.978L462.874 257.518C460.711 257.362 458.934 257.056 457.477 256.554ZM483.42 284.466C482.328 286.364 480.561 287.861 478.173 288.904L471.948 270.179C475.182 270.16 477.656 270.578 479.376 271.406C481.624 272.411 483.186 274.17 483.992 276.635C484.963 279.539 484.764 282.182 483.42 284.466Z" fill="black" stroke="black" stroke-width="0.00799996"/>
</svg>
